<svg width="54" height="54" viewBox="0 0 54 54" fill="none" xmlns="http://www.w3.org/2000/svg">
<path d="M26.9999 -5.34058e-05C41.9115 -5.34058e-05 53.9998 12.0883 53.9999 26.9999C53.9999 41.9116 41.9116 53.9999 26.9999 53.9999C12.0882 53.9999 -0.00012207 41.9116 -0.00012207 26.9999C-9.32077e-05 12.0883 12.0883 1.257e-05 26.9999 -5.34058e-05ZM25.9735 11.7392C23.299 11.7392 21.1307 13.9075 21.1307 16.582V21.1308H16.5819C13.9076 21.1308 11.7394 23.2983 11.7391 25.9726V28.0273C11.7393 30.7016 13.9075 32.8701 16.5819 32.8701H21.1307V37.4189C21.1309 40.0932 23.2992 42.2607 25.9735 42.2607H28.0272C30.7015 42.2606 32.8698 40.0931 32.87 37.4189V32.8701H37.4178C40.0922 32.8701 42.2605 30.7016 42.2606 28.0273V25.9726C42.2604 23.2983 40.0922 21.1308 37.4178 21.1308H32.87V16.582C32.87 13.9076 30.7016 11.7393 28.0272 11.7392H25.9735Z" fill="white"/>
</svg>
